<svg width="100" height="100" viewBox="0 0 100 100" fill="none" xmlns="http://www.w3.org/2000/svg">
<g clip-path="url(#clip0_5_516)">
<path d="M49.947 0C22.354 0.03 0 22.406 0 50C0.0140814 57.8321 1.86787 65.5513 5.41197 72.5356C8.95607 79.52 14.0914 85.574 20.404 90.21C20.139 88.179 20.191 86.082 20.521 84.008C17.2218 81.1441 14.355 77.8172 12.01 74.131H24.455C25.637 72.286 26.855 70.461 28.98 69.131C27.735 64.031 26.974 58.415 26.834 52.5H28.18C28.5793 50.7491 29.2293 49.0651 30.11 47.5H26.867C27.079 41.565 27.91 35.946 29.23 30.87H47.5V39.758C49.2681 40.0284 50.9665 40.6412 52.5 41.562V30.87H71.695C71.955 31.867 72.19 32.89 72.41 33.927C74.0926 33.6693 75.8014 33.63 77.494 33.81C77.3003 32.8259 77.0873 31.8457 76.855 30.87H90.745C92.8246 35.2978 94.164 40.0367 94.71 44.898C95.29 49.947 95.301 55.873 93.464 61.669C92.8681 63.8834 92.1039 66.0491 91.178 68.147C92.306 69.334 93.672 70.456 95.045 71.601C98.2917 64.862 99.985 57.4803 100 50C100 22.386 77.614 0 50 0H49.947ZM52.5 5.682C57.768 6.578 62.802 10.918 66.768 18.119C68.046 20.44 69.188 23.046 70.176 25.869H52.5V5.682ZM47.5 5.879V25.869H30.75C31.738 23.046 32.88 20.44 34.158 18.119C37.89 11.341 42.571 7.101 47.5 5.879ZM35.98 7.232C33.656 9.584 31.57 12.452 29.777 15.707C28.097 18.757 26.652 22.174 25.465 25.869H12.01C17.545 17.163 25.985 10.499 35.98 7.232ZM65.39 7.695C74.788 11.108 82.71 17.563 87.99 25.869H75.455C74.271 22.174 72.828 18.757 71.148 15.707C69.472 12.662 67.534 9.958 65.39 7.695ZM9.257 30.87H24.065C22.82 36.032 22.057 41.63 21.862 47.501H5.072C5.38259 41.7399 6.80329 36.0931 9.256 30.871L9.257 30.87ZM5.072 52.5H21.834C21.963 58.356 22.654 63.954 23.828 69.13H9.256C6.80329 63.9079 5.38259 58.2611 5.072 52.5Z" fill="#066D3E"/>
<path d="M76 37.769C67.715 37.769 61 44.485 61 52.769C61 61.053 67.715 67.769 76 67.769C84.283 67.769 91 61.053 91 52.769C91 44.485 84.283 37.769 76 37.769ZM76 69.992C59.43 69.992 52 77.423 52 93.992V95.992C52.075 99.932 53.817 100.048 57.5 99.992H94.5C99.195 99.988 100.032 99.997 100 95.992V93.992C100 77.423 92.568 69.992 76 69.992Z" fill="#0B74BF"/>
<path d="M44 43.39C37.213 43.39 31.709 48.894 31.709 55.682C31.709 62.469 37.213 67.971 44 67.971C50.787 67.971 56.29 62.469 56.29 55.681C56.29 48.894 50.787 43.39 44 43.39ZM44 69.791C30.425 69.791 24.336 75.881 24.336 89.455V91.094C24.398 94.322 25.825 94.417 28.842 94.371H47.965C47.477 86.283 49.866 77.693 55.816 72.232C52.804 70.586 48.891 69.791 44 69.791Z" fill="#C01AC4"/>
</g>
<defs>
<clipPath id="clip0_5_516">
<rect width="100" height="100" fill="white"/>
</clipPath>
</defs>
</svg>
