<svg width="70" height="57" viewBox="0 0 70 57" fill="none" xmlns="http://www.w3.org/2000/svg">
<g id="pepicons-print:television-play">
<g id="Group">
<g id="Group_2" opacity="0.5">
<path id="Vector" fill-rule="evenodd" clip-rule="evenodd" d="M16.775 26.9V15.15C16.775 13.2802 17.739 11.487 19.4549 10.1649C21.1709 8.84277 23.4982 8.10001 25.925 8.10001H48.8C51.2267 8.10001 53.554 8.84277 55.27 10.1649C56.986 11.487 57.95 13.2802 57.95 15.15V26.9C57.95 28.7698 56.986 30.563 55.27 31.8851C53.554 33.2072 51.2267 33.95 48.8 33.95H25.925C23.4982 33.95 21.1709 33.2072 19.4549 31.8851C17.739 30.563 16.775 28.7698 16.775 26.9Z" fill="white"/>
<path id="Vector_2" fill-rule="evenodd" clip-rule="evenodd" d="M19.825 15.15V26.9C19.825 28.1465 20.4676 29.342 21.6116 30.2234C22.7556 31.1048 24.3071 31.6 25.925 31.6H48.8C50.4178 31.6 51.9693 31.1048 53.1133 30.2234C54.2573 29.342 54.9 28.1465 54.9 26.9V15.15C54.9 13.9035 54.2573 12.708 53.1133 11.8266C51.9693 10.9452 50.4178 10.45 48.8 10.45H25.925C24.3071 10.45 22.7556 10.9452 21.6116 11.8266C20.4676 12.708 19.825 13.9035 19.825 15.15ZM16.775 15.15V26.9C16.775 28.7698 17.739 30.563 19.4549 31.8851C21.1709 33.2072 23.4982 33.95 25.925 33.95H48.8C51.2267 33.95 53.554 33.2072 55.27 31.8851C56.986 30.563 57.95 28.7698 57.95 26.9V15.15C57.95 13.2802 56.986 11.487 55.27 10.1649C53.554 8.84277 51.2267 8.10001 48.8 8.10001H25.925C23.4982 8.10001 21.1709 8.84277 19.4549 10.1649C17.739 11.487 16.775 13.2802 16.775 15.15Z" fill="white"/>
<path id="Vector_3" fill-rule="evenodd" clip-rule="evenodd" d="M45.6554 0.847904C45.8903 0.992534 46.0859 1.17143 46.231 1.37435C46.3761 1.57728 46.4678 1.80025 46.501 2.03052C46.5341 2.26079 46.508 2.49384 46.4242 2.71633C46.3403 2.93882 46.2003 3.14638 46.0123 3.32715L39.9123 9.20215C39.5329 9.56738 38.9808 9.80153 38.3773 9.8531C37.7739 9.90466 37.1685 9.76941 36.6945 9.4771C36.2205 9.1848 35.9166 8.75937 35.8497 8.29442C35.7828 7.82947 35.9583 7.36308 36.3377 6.99785L42.4377 1.12285C42.6254 0.941862 42.8576 0.79116 43.1209 0.679369C43.3843 0.567579 43.6737 0.496894 43.9726 0.471357C44.2714 0.44582 44.5739 0.465932 44.8626 0.530544C45.1514 0.595156 45.4208 0.702999 45.6554 0.847904Z" fill="white"/>
<path id="Vector_4" fill-rule="evenodd" clip-rule="evenodd" d="M27.5445 0.847904C27.7791 0.702999 28.0485 0.595156 28.3373 0.530544C28.626 0.465932 28.9285 0.44582 29.2274 0.471357C29.5262 0.496894 29.8156 0.567579 30.079 0.679369C30.3424 0.79116 30.5745 0.941862 30.7622 1.12285L36.8622 6.99785C37.0501 7.1787 37.1899 7.38628 37.2736 7.60874C37.3573 7.83121 37.3834 8.0642 37.3502 8.29442C37.3171 8.52464 37.2254 8.74758 37.0805 8.95051C36.9355 9.15343 36.7401 9.33237 36.5054 9.4771C36.2707 9.62184 36.0013 9.72954 35.7125 9.79405C35.4238 9.85857 35.1214 9.87863 34.8226 9.8531C34.5238 9.82757 34.2345 9.75694 33.9711 9.64525C33.7077 9.53356 33.4755 9.383 33.2876 9.20215L27.1876 3.32715C26.9996 3.14638 26.8596 2.93882 26.7758 2.71633C26.6919 2.49384 26.6658 2.26079 26.6989 2.03052C26.7321 1.80025 26.8238 1.57728 26.9689 1.37435C27.114 1.17143 27.3096 0.992534 27.5445 0.847904Z" fill="white"/>
</g>
<path id="Vector_5" fill-rule="evenodd" clip-rule="evenodd" d="M12.9625 15.15V26.9C12.9625 28.1465 13.6052 29.342 14.7491 30.2234C15.8931 31.1048 17.4447 31.6 19.0625 31.6H41.9375C43.5553 31.6 45.1069 31.1048 46.2508 30.2234C47.3948 29.342 48.0375 28.1465 48.0375 26.9V15.15C48.0375 13.9035 47.3948 12.708 46.2508 11.8266C45.1069 10.9452 43.5553 10.45 41.9375 10.45H19.0625C17.4447 10.45 15.8931 10.9452 14.7491 11.8266C13.6052 12.708 12.9625 13.9035 12.9625 15.15ZM9.91248 15.15V26.9C9.91248 28.7698 10.8765 30.563 12.5924 31.8851C14.3084 33.2072 16.6357 33.95 19.0625 33.95H41.9375C44.3642 33.95 46.6915 33.2072 48.4075 31.8851C50.1235 30.563 51.0875 28.7698 51.0875 26.9V15.15C51.0875 13.2802 50.1235 11.487 48.4075 10.1649C46.6915 8.84277 44.3642 8.10001 41.9375 8.10001H19.0625C16.6357 8.10001 14.3084 8.84277 12.5924 10.1649C10.8765 11.487 9.91248 13.2802 9.91248 15.15Z" fill="#FF0000"/>
<path id="Vector_6" fill-rule="evenodd" clip-rule="evenodd" d="M35.075 21.025L27.45 24.55V17.5L35.075 21.025Z" fill="white"/>
<path id="Vector_7" fill-rule="evenodd" clip-rule="evenodd" d="M21.1609 1.3085C21.4765 1.11438 21.8792 1.02466 22.2806 1.05902C22.682 1.09339 23.0493 1.24903 23.302 1.4918L29.402 7.3668C29.5383 7.48611 29.6418 7.6255 29.7062 7.77653C29.7706 7.92756 29.7946 8.08708 29.7766 8.24545C29.7587 8.40381 29.6992 8.55773 29.6018 8.69788C29.5044 8.83802 29.3712 8.96148 29.2101 9.06079C29.0489 9.1601 28.8634 9.23318 28.6645 9.27562C28.4657 9.31806 28.2577 9.32898 28.0533 9.3077C27.8488 9.28642 27.6521 9.2334 27.475 9.15184C27.2979 9.07028 27.1441 8.96188 27.023 8.8332L20.923 2.9582C20.671 2.715 20.5546 2.40472 20.5992 2.09545C20.6438 1.78618 20.8458 1.50316 21.1609 1.3085Z" fill="#FF0000"/>
<path id="Vector_8" fill-rule="evenodd" clip-rule="evenodd" d="M28.5851 8.21424C28.3455 7.95857 28.2347 7.63238 28.2771 7.30725C28.3196 6.98211 28.5117 6.68459 28.8114 6.47994L36.0645 1.53892C36.2118 1.42848 36.3838 1.34464 36.5703 1.29248C36.7568 1.24032 36.9537 1.22092 37.1492 1.23545C37.3447 1.24998 37.5347 1.29815 37.7078 1.37703C37.8808 1.45591 38.0332 1.56387 38.1558 1.69437C38.2784 1.82487 38.3686 1.97519 38.421 2.13625C38.4734 2.2973 38.4869 2.46574 38.4606 2.63136C38.4344 2.79697 38.3689 2.95633 38.2682 3.09978C38.1675 3.24323 38.0337 3.36779 37.8748 3.46592L30.6218 8.40694C30.3215 8.61102 29.9385 8.70534 29.5567 8.66921C29.1748 8.63309 28.8254 8.46946 28.5851 8.21424Z" fill="#FF0000"/>
</g>
<path id="Vector_9" fill-rule="evenodd" clip-rule="evenodd" d="M37.4555 20.3925C37.4556 20.5956 37.3873 20.7952 37.2575 20.9719C37.1276 21.1486 36.9405 21.2963 36.7144 21.4007L29.0894 24.9257C28.8579 25.0325 28.5938 25.0902 28.324 25.0927C28.0542 25.0952 27.7884 25.0425 27.5536 24.94C27.3189 24.8375 27.1236 24.6889 26.9878 24.5092C26.852 24.3296 26.7805 24.1254 26.7805 23.9175V16.8676C26.7805 16.6597 26.852 16.4555 26.9878 16.2758C27.1236 16.0962 27.3189 15.9475 27.5536 15.845C27.7884 15.7425 28.0542 15.6899 28.324 15.6924C28.5938 15.6949 28.8579 15.7525 29.0894 15.8594L36.7144 19.3844C36.9405 19.4888 37.1276 19.6365 37.2575 19.8132C37.3873 19.9899 37.4556 20.1895 37.4555 20.3925ZM29.8305 18.9426V21.8425L32.9659 20.3925L29.8305 18.9426Z" fill="#F90000"/>
</g>
</svg>
