<svg width="92" height="88" viewBox="0 0 92 88" fill="none" xmlns="http://www.w3.org/2000/svg">
<g id="logos:whatsapp-icon">
<rect width="92" height="88" rx="44" fill="#010047"/>
<path id="Vector" d="M18.2334 43.6521C18.232 48.5252 19.5152 53.2834 21.9553 57.4774L18 71.807L32.7791 67.9619C36.8668 70.17 41.4468 71.327 46.101 71.3273H46.1132C61.4776 71.3273 73.9845 58.9218 73.9911 43.6739C73.994 36.2852 71.0967 29.3373 65.8328 24.1101C60.5697 18.8834 53.5701 16.0034 46.1121 16C30.746 16 18.2399 28.4048 18.2336 43.6521" fill="url(#paint0_linear_5_570)"/>
<path id="Vector_2" d="M18.8573 42.5445C18.8557 47.9624 20.2298 53.2514 22.842 57.9134L18.6068 73.8428L34.4318 69.5685C38.7922 72.0175 43.7015 73.3087 48.6969 73.3106H48.7098C65.1618 73.3106 78.5548 59.5185 78.5618 42.5691C78.5646 34.3548 75.4619 26.6306 69.8262 20.8199C64.1897 15.01 56.6953 11.8081 48.7098 11.8047C32.255 11.8047 18.8639 25.5948 18.8573 42.5445ZM28.2815 57.1105L27.6906 56.1443C25.2067 52.0758 23.8957 47.3742 23.8975 42.5464C23.9029 28.4583 35.033 16.9965 48.7192 16.9965C55.347 16.9994 61.5758 19.6609 66.2607 24.4899C70.9454 29.3193 73.5232 35.7392 73.5216 42.5672C73.5155 56.6553 62.3852 68.1185 48.7098 68.1185H48.7C44.2471 68.1161 39.88 66.8843 36.0715 64.5564L35.1651 64.0027L25.7742 66.539L28.2815 57.1103V57.1105Z" fill="url(#paint1_linear_5_570)"/>
<path id="Vector_3" d="M41.2487 29.6932C40.6899 28.4138 40.1018 28.388 39.5704 28.3655C39.1353 28.3462 38.6378 28.3477 38.1409 28.3477C37.6434 28.3477 36.8352 28.5404 36.1521 29.3088C35.4682 30.078 33.5412 31.9366 33.5412 35.7168C33.5412 39.4973 36.2141 43.1506 36.5867 43.6638C36.9598 44.176 41.7468 52.1818 49.3283 55.2617C55.6292 57.8211 56.9115 57.3121 58.279 57.1837C59.6467 57.0559 62.6922 55.3256 63.3136 53.5314C63.9354 51.7374 63.9354 50.1996 63.7489 49.8783C63.5625 49.5581 63.0651 49.3659 62.3192 48.9818C61.573 48.5975 57.9059 46.7386 57.2223 46.4821C56.5384 46.2259 56.0412 46.0981 55.5438 46.8674C55.0463 47.6356 53.6179 49.3659 53.1826 49.8783C52.7477 50.3919 52.3123 50.4558 51.5666 50.0715C50.8202 49.686 48.418 48.8756 45.568 46.2582C43.3506 44.2216 41.8536 41.7065 41.4185 40.9371C40.9834 40.169 41.3719 39.7526 41.7459 39.3697C42.081 39.0254 42.4921 38.4724 42.8654 38.024C43.2373 37.5752 43.3614 37.2551 43.6101 36.7426C43.8591 36.2297 43.7345 35.781 43.5483 35.3967C43.3614 35.0124 41.912 31.2123 41.2487 29.6932Z" fill="white"/>
</g>
<defs>
<linearGradient id="paint0_linear_5_570" x1="2817.55" y1="5596.7" x2="2817.55" y2="16" gradientUnits="userSpaceOnUse">
<stop stop-color="#1FAF38"/>
<stop offset="1" stop-color="#60D669"/>
</linearGradient>
<linearGradient id="paint1_linear_5_570" x1="3016.36" y1="6215.62" x2="3016.36" y2="11.8047" gradientUnits="userSpaceOnUse">
<stop stop-color="#F9F9F9"/>
<stop offset="1" stop-color="white"/>
</linearGradient>
</defs>
</svg>
