<svg width="70" height="71" viewBox="0 0 70 71" fill="none" xmlns="http://www.w3.org/2000/svg">
<g id="simple-icons:yourtraveldottv" clip-path="url(#clip0_103_168)">
<path id="Vector" d="M7.60957 18.7758C8.14332 18.0583 8.84624 17.0871 9.40916 16.3929C11.095 14.4796 11.3137 14.2288 12.8479 12.8142C13.3029 12.4408 13.8425 11.9917 14.3704 11.5688C10.4767 14.8646 9.98082 18.5133 13.5537 20.7679C13.5479 20.7679 13.5479 20.7679 13.5479 20.7738C18.5442 23.7838 29.4933 23.1333 38.1325 19.2775C46.5004 15.5442 49.5892 10.2038 45.4592 7.03042C41.8337 6.35083 37.5112 6.27208 32.9379 6.88458L32.4625 6.1L32.8562 4.79917C35.5454 4.55708 38.1004 4.61542 40.3054 4.99167C40.8392 5.08208 41.5421 5.23667 42.0671 5.3475C43.0821 5.59542 43.6333 5.74417 44.2954 5.95708C44.9721 6.15833 45.5496 6.35958 46.5558 6.73292C47.5417 7.12083 47.9675 7.29583 48.7579 7.68958C49.6431 8.09344 50.5031 8.55024 51.3333 9.0575C57.9133 13.1963 53.8212 20.7475 42.21 25.9217C30.6308 31.0783 15.8754 31.8892 9.26332 27.8C9.26041 27.7942 9.25166 27.7883 9.23416 27.7825H9.24582C5.63499 25.4958 5.25582 22.1767 7.60957 18.7758ZM37.7358 47.7092L37.6425 43.06L34.3379 39.385C23.4208 41.8583 12.6904 41.3275 6.72291 37.8129C6.70249 37.7896 6.6529 37.7663 6.63249 37.7429C3.25499 35.6633 2.42082 32.98 2.67457 30.0633C1.88415 34.3304 1.81999 35.8704 1.93374 39.5221C2.07374 41.8088 3.39499 43.9175 6.05207 45.58L6.07249 45.6033C12.4337 49.5583 25.6871 50.4158 37.7358 47.7092ZM51.5171 53.0321C36.1083 59.2125 16.8233 59.5771 8.44665 53.8575C9.35128 56.0682 10.5822 58.1309 12.0983 59.9767C19.7867 65.2267 37.4879 64.8913 51.625 59.2183C59.8996 55.9021 65.1204 51.4892 66.4912 47.3533L66.8763 46.1079C67.7892 42.9521 67.9613 40.3242 68.1071 37.985C67.9408 43.0629 61.9587 48.8379 51.5171 53.0321ZM17.5029 64.935C17.9871 65.3958 19.5096 67.2654 27.2242 69.3304C29.3096 69.7913 34.5596 71.27 44.2575 69.1204L44.3158 68.2367L43.5487 67.035C34.5508 69.1642 24.5554 68.4525 17.5029 64.935ZM39.7687 28.1588L47.9617 34.3683C47.9617 34.3683 49.7146 35.6313 48.0608 36.5179C46.4129 37.3958 42.1808 39.5454 42.1808 39.5454L38.0012 37.985L35.9042 38.9183L39.6025 42.1296L39.6317 47.1258L41.8046 46.1604L43.2454 41.94C43.2454 41.94 47.67 40.2367 49.4258 39.595C51.1904 38.9679 50.9542 41.1146 50.9542 41.1146L50.085 51.355L52.9725 50.0717L57.7267 36.2554C57.7267 36.2554 60.2467 35.0304 62.02 33.9542C63.7904 32.8779 64.3971 31.0929 64.3971 31.0929C64.3971 31.0929 62.6704 30.3492 60.6812 30.9471C58.6921 31.5392 56.0992 32.595 56.0992 32.595L42.6475 26.8813L39.7687 28.1588ZM22.435 8.51208L27.9971 12.9425L29.5167 12.715L26.4892 8.73958C26.4892 8.73958 25.83 7.91708 26.7167 7.72167C27.6092 7.52333 29.8667 7.0625 29.8667 7.0625L31.5642 8.41875L32.7075 8.24958L31.4125 6.19042L32.095 3.90667L30.9896 4.06708L29.68 5.80542C29.68 5.80542 27.3817 6.02125 26.4775 6.09708C25.5675 6.16708 25.9583 5.19 25.9583 5.19L27.7025 0.5L26.1742 0.724583L22.1492 6.58417C22.1492 6.58417 20.8075 6.82917 19.8362 7.10625C18.8621 7.38042 18.3487 8.13292 18.3487 8.13292C18.3487 8.13292 19.0633 8.71042 20.0696 8.69C21.0846 8.66958 22.435 8.51208 22.435 8.51208ZM49.9246 65.4396L46.3254 63.5583L45.4971 63.8471L47.6292 65.7546C47.6292 65.7546 48.0842 66.1425 47.6058 66.3496C47.1275 66.5537 45.9083 67.0554 45.9083 67.0554L44.9021 66.6063L44.3042 66.8221L45.1412 67.7146L45.0596 69.0183L45.6837 68.8025L46.1504 67.7438C46.1504 67.7438 47.4162 67.3675 47.9208 67.2333C48.4225 67.0963 48.3087 67.6854 48.3087 67.6854L47.8333 70.5L48.6646 70.2113L50.295 66.4896C50.295 66.4896 51.0154 66.2067 51.5317 65.9471C52.0479 65.6875 52.2521 65.2092 52.2521 65.2092C52.2521 65.2092 51.7942 64.9583 51.2283 65.0837C50.6596 65.2033 49.9246 65.4396 49.9246 65.4396Z" fill="#FF0000"/>
</g>
<defs>
<clipPath id="clip0_103_168">
<rect width="70" height="70" fill="white" transform="translate(0 0.5)"/>
</clipPath>
</defs>
</svg>
